<svg width="214" height="24" viewBox="0 0 214 24" fill="none" xmlns="http://www.w3.org/2000/svg">
<path d="M5.05804 18.216C4.37404 18.216 3.70804 18.15 3.06004 18.018C2.42404 17.898 1.84204 17.73 1.31404 17.514C0.798043 17.298 0.360043 17.064 4.29619e-05 16.812L1.18804 14.562C1.58404 14.838 2.00404 15.078 2.44804 15.282C2.90404 15.474 3.37804 15.624 3.87004 15.732C4.36204 15.828 4.85404 15.876 5.34604 15.876C5.88604 15.876 6.34804 15.816 6.73204 15.696C7.12804 15.576 7.42804 15.408 7.63204 15.192C7.84804 14.976 7.95604 14.712 7.95604 14.4C7.95604 14.112 7.84204 13.878 7.61404 13.698C7.38604 13.518 7.08604 13.368 6.71404 13.248C6.35404 13.116 5.95204 12.99 5.50804 12.87C5.06404 12.75 4.61404 12.612 4.15804 12.456C3.71404 12.288 3.30604 12.084 2.93404 11.844C2.57404 11.592 2.28004 11.274 2.05204 10.89C1.82404 10.506 1.71004 10.026 1.71004 9.45C1.71004 8.586 1.94404 7.836 2.41204 7.2C2.89204 6.564 3.56404 6.072 4.42804 5.724C5.29204 5.364 6.30604 5.184 7.47004 5.184C8.32204 5.184 9.12604 5.28 9.88204 5.472C10.638 5.652 11.286 5.916 11.826 6.264L10.728 8.496C10.248 8.172 9.71404 7.932 9.12604 7.776C8.53804 7.608 7.93204 7.524 7.30804 7.524C6.74404 7.524 6.25804 7.59 5.85004 7.722C5.45404 7.854 5.14804 8.04 4.93204 8.28C4.72804 8.508 4.62604 8.772 4.62604 9.072C4.62604 9.372 4.73404 9.618 4.95004 9.81C5.17804 9.99 5.47804 10.146 5.85004 10.278C6.22204 10.398 6.63004 10.518 7.07404 10.638C7.51804 10.758 7.96204 10.896 8.40604 11.052C8.85004 11.208 9.25804 11.406 9.63004 11.646C10.002 11.886 10.302 12.192 10.53 12.564C10.758 12.924 10.872 13.38 10.872 13.932C10.872 14.796 10.632 15.552 10.152 16.2C9.67204 16.836 8.99404 17.334 8.11804 17.694C7.25404 18.042 6.23404 18.216 5.05804 18.216ZM11.6046 18L14.1246 5.4H17.0586L14.5386 18H11.6046ZM16.9708 18L19.4908 5.4H21.8668L25.4488 14.328L24.1888 14.31L31.1728 5.4H33.6748L31.1728 18H28.4368L30.1108 9.558H30.6688L25.1068 16.668H23.8108L20.8408 9.54L21.3808 9.594L19.7068 18H16.9708ZM33.6222 18L36.1422 5.4H41.2362C42.8082 5.4 44.0202 5.748 44.8722 6.444C45.7362 7.128 46.1682 8.088 46.1682 9.324C46.1682 10.38 45.9222 11.304 45.4302 12.096C44.9382 12.876 44.2302 13.476 43.3062 13.896C42.3942 14.316 41.3082 14.526 40.0482 14.526H35.9622L37.5102 13.194L36.5562 18H33.6222ZM37.4382 13.536L36.4122 12.15H40.1742C41.1342 12.15 41.8782 11.934 42.4062 11.502C42.9462 11.058 43.2162 10.416 43.2162 9.576C43.2162 8.964 43.0122 8.514 42.6042 8.226C42.1962 7.926 41.6202 7.776 40.8762 7.776H37.3302L38.8782 6.354L37.4382 13.536ZM46.09 18L48.61 5.4H51.544L49.492 15.624H55.81L55.324 18H46.09ZM58.2445 18L59.2705 12.816L59.5945 14.652L55.8865 5.4H58.8025L61.6285 12.474L59.8645 12.492L65.5705 5.4H68.5765L61.1965 14.67L62.1865 12.816L61.1605 18H58.2445ZM78.2962 18.216C77.3242 18.216 76.4182 18.06 75.5782 17.748C74.7502 17.424 74.0302 16.968 73.4182 16.38C72.8062 15.792 72.3262 15.102 71.9782 14.31C71.6422 13.518 71.4742 12.648 71.4742 11.7C71.4742 10.752 71.6422 9.882 71.9782 9.09C72.3262 8.298 72.8062 7.608 73.4182 7.02C74.0422 6.432 74.7682 5.982 75.5962 5.67C76.4242 5.346 77.3302 5.184 78.3142 5.184C79.4062 5.184 80.3902 5.376 81.2662 5.76C82.1542 6.132 82.8982 6.684 83.4982 7.416L81.6262 9.144C81.1942 8.652 80.7142 8.286 80.1862 8.046C79.6582 7.794 79.0822 7.668 78.4582 7.668C77.8702 7.668 77.3302 7.764 76.8382 7.956C76.3462 8.148 75.9202 8.424 75.5602 8.784C75.2002 9.144 74.9182 9.57 74.7142 10.062C74.5222 10.554 74.4262 11.1 74.4262 11.7C74.4262 12.3 74.5222 12.846 74.7142 13.338C74.9182 13.83 75.2002 14.256 75.5602 14.616C75.9202 14.976 76.3462 15.252 76.8382 15.444C77.3302 15.636 77.8702 15.732 78.4582 15.732C79.0822 15.732 79.6582 15.612 80.1862 15.372C80.7142 15.12 81.1942 14.742 81.6262 14.238L83.4982 15.966C82.8982 16.698 82.1542 17.256 81.2662 17.64C80.3902 18.024 79.4002 18.216 78.2962 18.216ZM93.5674 5.4H96.4834V18H93.5674V5.4ZM87.8434 18H84.9274V5.4H87.8434V18ZM93.7834 12.834H87.6274V10.368H93.7834V12.834ZM105.045 18.216C104.049 18.216 103.125 18.054 102.273 17.73C101.433 17.406 100.701 16.95 100.077 16.362C99.4645 15.774 98.9845 15.084 98.6365 14.292C98.3005 13.5 98.1325 12.636 98.1325 11.7C98.1325 10.764 98.3005 9.9 98.6365 9.108C98.9845 8.316 99.4705 7.626 100.095 7.038C100.719 6.45 101.451 5.994 102.291 5.67C103.131 5.346 104.043 5.184 105.027 5.184C106.023 5.184 106.935 5.346 107.763 5.67C108.603 5.994 109.329 6.45 109.941 7.038C110.565 7.626 111.051 8.316 111.399 9.108C111.747 9.888 111.921 10.752 111.921 11.7C111.921 12.636 111.747 13.506 111.399 14.31C111.051 15.102 110.565 15.792 109.941 16.38C109.329 16.956 108.603 17.406 107.763 17.73C106.935 18.054 106.029 18.216 105.045 18.216ZM105.027 15.732C105.591 15.732 106.107 15.636 106.575 15.444C107.055 15.252 107.475 14.976 107.835 14.616C108.195 14.256 108.471 13.83 108.663 13.338C108.867 12.846 108.969 12.3 108.969 11.7C108.969 11.1 108.867 10.554 108.663 10.062C108.471 9.57 108.195 9.144 107.835 8.784C107.487 8.424 107.073 8.148 106.593 7.956C106.113 7.764 105.591 7.668 105.027 7.668C104.463 7.668 103.941 7.764 103.461 7.956C102.993 8.148 102.579 8.424 102.219 8.784C101.859 9.144 101.577 9.57 101.373 10.062C101.181 10.554 101.085 11.1 101.085 11.7C101.085 12.288 101.181 12.834 101.373 13.338C101.577 13.83 101.853 14.256 102.201 14.616C102.561 14.976 102.981 15.252 103.461 15.444C103.941 15.636 104.463 15.732 105.027 15.732ZM119.602 18.216C118.63 18.216 117.724 18.06 116.884 17.748C116.056 17.424 115.336 16.968 114.724 16.38C114.112 15.792 113.632 15.102 113.284 14.31C112.948 13.518 112.78 12.648 112.78 11.7C112.78 10.752 112.948 9.882 113.284 9.09C113.632 8.298 114.112 7.608 114.724 7.02C115.348 6.432 116.074 5.982 116.902 5.67C117.73 5.346 118.636 5.184 119.62 5.184C120.712 5.184 121.696 5.376 122.572 5.76C123.46 6.132 124.204 6.684 124.804 7.416L122.932 9.144C122.5 8.652 122.02 8.286 121.492 8.046C120.964 7.794 120.388 7.668 119.764 7.668C119.176 7.668 118.636 7.764 118.144 7.956C117.652 8.148 117.226 8.424 116.866 8.784C116.506 9.144 116.224 9.57 116.02 10.062C115.828 10.554 115.732 11.1 115.732 11.7C115.732 12.3 115.828 12.846 116.02 13.338C116.224 13.83 116.506 14.256 116.866 14.616C117.226 14.976 117.652 15.252 118.144 15.444C118.636 15.636 119.176 15.732 119.764 15.732C120.388 15.732 120.964 15.612 121.492 15.372C122.02 15.12 122.5 14.742 122.932 14.238L124.804 15.966C124.204 16.698 123.46 17.256 122.572 17.64C121.696 18.024 120.706 18.216 119.602 18.216ZM132.09 18.216C131.094 18.216 130.17 18.054 129.318 17.73C128.478 17.406 127.746 16.95 127.122 16.362C126.51 15.774 126.03 15.084 125.682 14.292C125.346 13.5 125.178 12.636 125.178 11.7C125.178 10.764 125.346 9.9 125.682 9.108C126.03 8.316 126.516 7.626 127.14 7.038C127.764 6.45 128.496 5.994 129.336 5.67C130.176 5.346 131.088 5.184 132.072 5.184C133.068 5.184 133.98 5.346 134.808 5.67C135.648 5.994 136.374 6.45 136.986 7.038C137.61 7.626 138.096 8.316 138.444 9.108C138.792 9.888 138.966 10.752 138.966 11.7C138.966 12.636 138.792 13.506 138.444 14.31C138.096 15.102 137.61 15.792 136.986 16.38C136.374 16.956 135.648 17.406 134.808 17.73C133.98 18.054 133.074 18.216 132.09 18.216ZM132.072 15.732C132.636 15.732 133.152 15.636 133.62 15.444C134.1 15.252 134.52 14.976 134.88 14.616C135.24 14.256 135.516 13.83 135.708 13.338C135.912 12.846 136.014 12.3 136.014 11.7C136.014 11.1 135.912 10.554 135.708 10.062C135.516 9.57 135.24 9.144 134.88 8.784C134.532 8.424 134.118 8.148 133.638 7.956C133.158 7.764 132.636 7.668 132.072 7.668C131.508 7.668 130.986 7.764 130.506 7.956C130.038 8.148 129.624 8.424 129.264 8.784C128.904 9.144 128.622 9.57 128.418 10.062C128.226 10.554 128.13 11.1 128.13 11.7C128.13 12.288 128.226 12.834 128.418 13.338C128.622 13.83 128.898 14.256 129.246 14.616C129.606 14.976 130.026 15.252 130.506 15.444C130.986 15.636 131.508 15.732 132.072 15.732ZM140.617 18V5.4H143.533V15.624H149.851V18H140.617ZM149.355 18L154.971 5.4H157.851L163.485 18H160.425L155.817 6.876H156.969L152.343 18H149.355ZM152.163 15.3L152.937 13.086H159.417L160.209 15.3H152.163ZM166.229 18V7.776H162.197V5.4H173.177V7.776H169.145V18H166.229ZM176.888 10.476H182.954V12.744H176.888V10.476ZM177.104 15.66H183.962V18H174.206V5.4H183.728V7.74H177.104V15.66Z" fill="#111111"/>
<path d="M192.102 15.0568L200.185 1.9886L200.665 1.48303L206.841 5.6014L206.884 8.08665L208.391 10.5463L201.731 21.1038L192.102 15.0568Z" fill="#FCF1E0"/>
<path d="M205.37 17.9097L194.731 11.2616M197.665 6.44905L208.304 13.0971M197.117 19.3982L205.918 4.96051M209.526 11.0919C207.247 9.6673 206.351 8.55395 207.818 6.14767L200.599 1.63647L191.797 16.0742L202.436 22.7223L209.526 11.0919Z" stroke="#FD9222" stroke-width="2" stroke-linecap="round" stroke-linejoin="round"/>
</svg>
